<svg width="64" height="64" viewBox="0 0 64 64" fill="none" xmlns="http://www.w3.org/2000/svg">
<path fill-rule="evenodd" clip-rule="evenodd" d="M20.302 26.9001C19.7566 27.3778 19.625 27.7525 19.625 28C19.625 28.2475 19.7566 28.6222 20.302 29.0999C20.8453 29.5755 21.6962 30.0552 22.8448 30.4806C25.1333 31.3282 28.3699 31.875 32 31.875C35.6301 31.875 38.8667 31.3282 41.1552 30.4806C42.3038 30.0552 43.1547 29.5755 43.698 29.0999C44.2434 28.6222 44.375 28.2475 44.375 28C44.375 27.7525 44.2434 27.3778 43.698 26.9001C43.1547 26.4245 42.3038 25.9448 41.1552 25.5194C38.8667 24.6718 35.6301 24.125 32 24.125C28.3699 24.125 25.1333 24.6718 22.8448 25.5194C21.6962 25.9448 20.8453 26.4245 20.302 26.9001ZM44.375 31.3992C43.6772 31.8561 42.8487 32.2527 41.9367 32.5905C41.3013 32.8258 40.6111 33.0378 39.875 33.2239V38.8948C40.3257 38.7676 40.7537 38.6293 41.1552 38.4806C42.3438 38.0403 43.1918 37.5493 43.7225 37.0748C44.2543 36.5992 44.375 36.231 44.375 36V31.3992ZM37.625 39.4035V33.6871C36.2208 33.9166 34.7058 34.0615 33.125 34.1084V39.8571C34.7063 39.8066 36.2299 39.6504 37.625 39.4035ZM30.875 39.8571V34.1084C29.2942 34.0615 27.7792 33.9166 26.375 33.6871V39.4035C27.7701 39.6504 29.2937 39.8066 30.875 39.8571ZM24.125 38.8948V33.2239C23.3889 33.0378 22.6987 32.8258 22.0633 32.5905C21.1513 32.2527 20.3228 31.8561 19.625 31.3992V36C19.625 36.231 19.7457 36.5992 20.2775 37.0748C20.8082 37.5493 21.6562 38.0403 22.8448 38.4806C23.2463 38.6293 23.6743 38.7676 24.125 38.8948ZM46.625 28V36C46.625 37.0951 46.0345 38.0258 45.2222 38.7521C44.4088 39.4794 43.2798 40.093 41.9367 40.5905C39.2465 41.5869 35.6728 42.125 32 42.125C28.3272 42.125 24.7535 41.5869 22.0633 40.5905C20.7202 40.093 19.5912 39.4794 18.7778 38.7521C17.9655 38.0258 17.375 37.0951 17.375 36V28C17.375 26.8668 17.9989 25.9262 18.8198 25.2074C19.6428 24.4867 20.7689 23.8889 22.0633 23.4095C24.6609 22.4474 28.1742 21.875 32 21.875C35.8258 21.875 39.3391 22.4474 41.9367 23.4095C43.2311 23.8889 44.3572 24.4867 45.1802 25.2074C46.0011 25.9262 46.625 26.8668 46.625 28Z" fill="#B58AFF"/>
<g filter="url(#filter0_b_361_13734)">
<circle cx="32" cy="32" r="31.25" stroke="url(#paint0_linear_361_13734)" stroke-opacity="0.6" stroke-width="1.5"/>
</g>
<defs>
<filter id="filter0_b_361_13734" x="-20" y="-20" width="104" height="104" filterUnits="userSpaceOnUse" color-interpolation-filters="sRGB">
<feFlood flood-opacity="0" result="BackgroundImageFix"/>
<feGaussianBlur in="BackgroundImageFix" stdDeviation="10"/>
<feComposite in2="SourceAlpha" operator="in" result="effect1_backgroundBlur_361_13734"/>
<feBlend mode="normal" in="SourceGraphic" in2="effect1_backgroundBlur_361_13734" result="shape"/>
</filter>
<linearGradient id="paint0_linear_361_13734" x1="35.8919" y1="-25.0811" x2="35.8919" y2="64" gradientUnits="userSpaceOnUse">
<stop stop-color="#711EFF"/>
<stop offset="1" stop-color="#711EFF" stop-opacity="0"/>
</linearGradient>
</defs>
</svg>
