<svg width="20" height="20" viewBox="0 0 20 20" fill="none" xmlns="http://www.w3.org/2000/svg">
<path d="M15.9678 4.46197C14.8679 3.952 13.6903 3.57687 12.4592 3.36357C12.4374 3.35867 12.4155 3.37092 12.4034 3.39054C12.2528 3.66269 12.0829 4.0182 11.9663 4.2977C10.6406 4.09665 9.32219 4.09665 8.02561 4.2977C7.90907 4.01329 7.73425 3.66269 7.58128 3.39054C7.56914 3.37092 7.54729 3.36112 7.52543 3.36357C6.29441 3.57687 5.11681 3.952 4.0169 4.46197C4.00719 4.46687 3.99991 4.47423 3.99262 4.48159C1.75882 7.8528 1.14695 11.1406 1.4456 14.3893C1.44803 14.404 1.45531 14.4211 1.46745 14.431C2.94128 15.5245 4.3714 16.1889 5.77238 16.6278C5.79424 16.6351 5.81852 16.6253 5.83308 16.6081C6.16573 16.1497 6.45952 15.6691 6.71447 15.1616C6.72903 15.1322 6.71447 15.0978 6.68533 15.0856C6.21672 14.9066 5.76995 14.6859 5.34019 14.4383C5.3062 14.4187 5.30377 14.3697 5.33533 14.3451C5.42517 14.2765 5.51501 14.2054 5.60242 14.1343C5.61699 14.122 5.63884 14.1196 5.65826 14.1269C8.47966 15.4288 11.5341 15.4288 14.3215 14.1269C14.341 14.1171 14.3628 14.1196 14.3774 14.1343C14.4648 14.2054 14.5546 14.2789 14.6445 14.3451C14.676 14.3697 14.6736 14.4187 14.6396 14.4383C14.2099 14.6908 13.7631 14.9066 13.2945 15.0856C13.2629 15.0978 13.2508 15.1322 13.2653 15.164C13.5251 15.6716 13.8189 16.1521 14.1443 16.6106C14.1589 16.6302 14.1831 16.6376 14.205 16.6302C15.6133 16.1913 17.041 15.5269 18.5172 14.4334C18.5294 14.4236 18.5391 14.4089 18.5391 14.3942C18.8984 10.638 17.9369 7.37715 15.9896 4.48649C15.9872 4.47178 15.9775 4.46442 15.9678 4.46197ZM7.13695 12.4131C6.28713 12.4131 5.58785 11.6261 5.58785 10.6576C5.58785 9.68919 6.27499 8.90216 7.13695 8.90216C8.00619 8.90216 8.70061 9.69654 8.68604 10.6576C8.68604 11.6237 7.9989 12.4131 7.13695 12.4131ZM12.8647 12.4131C12.0149 12.4131 11.3156 11.6261 11.3156 10.6576C11.3156 9.68919 12.0028 8.90216 12.8647 8.90216C13.734 8.90216 14.4284 9.69654 14.4138 10.6576C14.4138 11.6237 13.734 12.4131 12.8647 12.4131Z" fill="white"/>
</svg>
