<svg width="64" height="64" viewBox="0 0 64 64" fill="none" xmlns="http://www.w3.org/2000/svg">
<circle cx="32" cy="32" r="14.625" stroke="#B58AFF" stroke-width="1.15"/>
<path fill-rule="evenodd" clip-rule="evenodd" d="M29.7625 20.75C30.0801 20.75 30.3375 21.0074 30.3375 21.325V23.6751H33.125V21.325C33.125 21.0074 33.3824 20.75 33.7 20.75C34.0176 20.75 34.275 21.0074 34.275 21.325V23.6751H37.6236C37.6634 23.6751 37.7016 23.6909 37.7297 23.719L40.4386 26.4279C40.4667 26.4561 40.4825 26.4942 40.4825 26.534V28.9701C40.4825 29.053 40.4153 29.1201 40.3325 29.1201H37.2665C37.1837 29.1201 37.1165 29.053 37.1165 28.9701V27.7715C37.1165 27.7317 37.1007 27.6936 37.0726 27.6654L35.9972 26.59C35.9691 26.5619 35.9309 26.5461 35.8911 26.5461H34.275V38.1291H35.8911C35.9309 38.1291 35.9691 38.1133 35.9972 38.0852L37.0726 37.0098C37.1007 36.9817 37.1165 36.9435 37.1165 36.9037V35.7051C37.1165 35.6223 37.1837 35.5551 37.2665 35.5551H40.3325C40.4153 35.5551 40.4825 35.6223 40.4825 35.7051V38.1412C40.4825 38.181 40.4667 38.2192 40.4386 38.2473L37.7297 40.9562C37.7016 40.9843 37.6634 41.0001 37.6236 41.0001H34.275V42.675C34.275 42.9926 34.0176 43.25 33.7 43.25C33.3824 43.25 33.125 42.9926 33.125 42.675V41.0001H30.3375V42.675C30.3375 42.9926 30.0801 43.25 29.7625 43.25C29.4449 43.25 29.1875 42.9926 29.1875 42.675V41.0001H27.0334C26.9936 41.0001 26.9554 40.9843 26.9273 40.9562L24.1689 38.1978C24.1408 38.1697 24.125 38.1315 24.125 38.0917V26.5835C24.125 26.5437 24.1408 26.5056 24.1689 26.4774L26.9273 23.719C26.9554 23.6909 26.9936 23.6751 27.0334 23.6751H29.1875V21.325C29.1875 21.0074 29.4449 20.75 29.7625 20.75ZM33.125 38.1291V26.5461H30.3375L30.3375 38.1291H33.125ZM28.8154 26.5461H29.1875L29.1875 38.1291H28.8154C28.7756 38.1291 28.7374 38.1133 28.7093 38.0852L27.5349 36.9108C27.5068 36.8827 27.491 36.8445 27.491 36.8047V27.8705C27.491 27.8307 27.5068 27.7926 27.5349 27.7644L28.7093 26.59C28.7374 26.5619 28.7756 26.5461 28.8154 26.5461Z" fill="url(#paint0_linear_1_56453)"/>
<g filter="url(#filter0_b_1_56453)">
<circle cx="32" cy="32" r="31.25" stroke="url(#paint1_linear_1_56453)" stroke-opacity="0.6" stroke-width="1.5"/>
</g>
<defs>
<filter id="filter0_b_1_56453" x="-20" y="-20" width="104" height="104" filterUnits="userSpaceOnUse" color-interpolation-filters="sRGB">
<feFlood flood-opacity="0" result="BackgroundImageFix"/>
<feGaussianBlur in="BackgroundImageFix" stdDeviation="10"/>
<feComposite in2="SourceAlpha" operator="in" result="effect1_backgroundBlur_1_56453"/>
<feBlend mode="normal" in="SourceGraphic" in2="effect1_backgroundBlur_1_56453" result="shape"/>
</filter>
<linearGradient id="paint0_linear_1_56453" x1="17.6123" y1="25.9286" x2="42.6294" y2="47.1473" gradientUnits="userSpaceOnUse">
<stop stop-color="#DAC4FF"/>
<stop offset="1" stop-color="#6D5399"/>
</linearGradient>
<linearGradient id="paint1_linear_1_56453" x1="35.8919" y1="-25.0811" x2="35.8919" y2="64" gradientUnits="userSpaceOnUse">
<stop stop-color="#711EFF"/>
<stop offset="1" stop-color="#711EFF" stop-opacity="0"/>
</linearGradient>
</defs>
</svg>
