<svg width="64" height="64" viewBox="0 0 64 64" fill="none" xmlns="http://www.w3.org/2000/svg">
<path fill-rule="evenodd" clip-rule="evenodd" d="M24.8 25H25H27.75V39H25H24.8H23H22.8H20.5V25H22.8H23H24.8ZM24.8 41H25H26.8H29C29.4142 41 29.75 40.6642 29.75 40.25V23.75C29.75 23.3358 29.4142 23 29 23H26.8H25H24.8V21V17.7826V17.15C24.8 16.6529 24.3971 16.25 23.9 16.25C23.4029 16.25 23 16.6529 23 17.15V17.7826V21V23H22.8H21H19.25C18.8358 23 18.5 23.3358 18.5 23.75V40.25C18.5 40.6642 18.8358 41 19.25 41H21H22.8H23V43V46.2174V46.85C23 47.3471 23.4029 47.75 23.9 47.75C24.3971 47.75 24.8 47.3471 24.8 46.85V46.2174V43V41ZM40.55 27.25H40.75H43.5V34.5H40.75H40.55H38.75H38.55H36.25V27.25H38.55H38.75H40.55ZM40.55 36.5H40.75H42.55H44.75C45.1642 36.5 45.5 36.1642 45.5 35.75V26C45.5 25.5858 45.1642 25.25 44.75 25.25H42.55H40.75H40.55V23.25V17.7826V17.15C40.55 16.6529 40.1471 16.25 39.65 16.25C39.1529 16.25 38.75 16.6529 38.75 17.15V17.7826V23.25V25.25H38.55H36.75H35C34.5858 25.25 34.25 25.5858 34.25 26V35.75C34.25 36.1642 34.5858 36.5 35 36.5H36.75H38.55H38.75V38.5V46.2174V46.85C38.75 47.3471 39.1529 47.75 39.65 47.75C40.1471 47.75 40.55 47.3471 40.55 46.85V46.2174V38.5V36.5Z" fill="url(#paint0_linear_1_56446)"/>
<g filter="url(#filter0_b_1_56446)">
<circle cx="32" cy="32" r="31.25" stroke="url(#paint1_linear_1_56446)" stroke-opacity="0.6" stroke-width="1.5"/>
</g>
<defs>
<filter id="filter0_b_1_56446" x="-20" y="-20" width="104" height="104" filterUnits="userSpaceOnUse" color-interpolation-filters="sRGB">
<feFlood flood-opacity="0" result="BackgroundImageFix"/>
<feGaussianBlur in="BackgroundImageFix" stdDeviation="10"/>
<feComposite in2="SourceAlpha" operator="in" result="effect1_backgroundBlur_1_56446"/>
<feBlend mode="normal" in="SourceGraphic" in2="effect1_backgroundBlur_1_56446" result="shape"/>
</filter>
<linearGradient id="paint0_linear_1_56446" x1="7.75" y1="23.5" x2="43.25" y2="59" gradientUnits="userSpaceOnUse">
<stop stop-color="#DAC4FF"/>
<stop offset="1" stop-color="#6D5399"/>
</linearGradient>
<linearGradient id="paint1_linear_1_56446" x1="35.8919" y1="-25.0811" x2="35.8919" y2="64" gradientUnits="userSpaceOnUse">
<stop stop-color="#711EFF"/>
<stop offset="1" stop-color="#711EFF" stop-opacity="0"/>
</linearGradient>
</defs>
</svg>
