<svg width="20" height="20" viewBox="0 0 20 20" fill="none" xmlns="http://www.w3.org/2000/svg">
<path d="M18.7912 4.7525C18.1444 5.02826 17.4492 5.2152 16.7198 5.29895C17.4641 4.86923 18.0363 4.18913 18.3052 3.37877C17.6083 3.77634 16.8366 4.06563 16.0149 4.22128C15.3575 3.54625 14.4207 3.125 13.3836 3.125C11.3922 3.125 9.7777 4.67891 9.7777 6.5957C9.7777 6.86808 9.80934 7.13284 9.87086 7.38661C6.87397 7.24196 4.21632 5.86062 2.43752 3.76027C2.12729 4.27288 1.94888 4.86923 1.94888 5.50534C1.94888 6.7099 2.58517 7.77149 3.55279 8.39407C2.96132 8.37631 2.40588 8.21982 1.919 7.96013C1.919 7.97451 1.919 7.98889 1.919 8.00411C1.919 9.68575 3.1617 11.0882 4.8113 11.4071C4.50898 11.4867 4.18995 11.529 3.86126 11.529C3.62925 11.529 3.40338 11.507 3.18279 11.4664C3.64155 12.8452 4.97389 13.8492 6.55143 13.8772C5.31752 14.8085 3.76195 15.3634 2.0728 15.3634C1.7819 15.3634 1.49451 15.3473 1.2124 15.3152C2.8084 16.2998 4.70408 16.875 6.74038 16.875C13.3731 16.875 17.001 11.5865 17.001 6.99919C17.001 6.84862 16.9975 6.6989 16.9904 6.55002C17.6962 6.06025 18.3078 5.44867 18.7912 4.7525Z" fill="white"/>
</svg>
